<svg xmlns="http://www.w3.org/2000/svg" viewBox="0 0 1024 1024" role="img" aria-labelledby="title desc">
  <title id="title">Optimal Challenge</title>
  <desc id="desc">A baby penguin with a three-way routing mark.</desc>
  <defs>
    <linearGradient id="bg" x1="128" y1="96" x2="896" y2="928" gradientUnits="userSpaceOnUse">
      <stop stop-color="#123B55"/>
      <stop offset="1" stop-color="#082436"/>
    </linearGradient>
    <linearGradient id="route" x1="424" y1="700" x2="736" y2="368" gradientUnits="userSpaceOnUse">
      <stop stop-color="#5EEAD4"/>
      <stop offset="1" stop-color="#2DD4BF"/>
    </linearGradient>
    <filter id="shadow" x="-20%" y="-20%" width="140%" height="140%">
      <feDropShadow dx="0" dy="22" stdDeviation="24" flood-color="#020B11" flood-opacity=".3"/>
    </filter>
  </defs>
  <rect x="40" y="40" width="944" height="944" rx="220" fill="url(#bg)"/>
  <circle cx="512" cy="506" r="344" fill="#0F3045" stroke="#2A5368" stroke-width="12"/>
  <g filter="url(#shadow)">
    <path d="M276 685c34-70 101-111 166-122-46-61-63-140-42-214 22-81 83-133 112-133s90 52 112 133c21 74 4 153-42 214 65 11 132 52 166 122-56 85-137 135-236 135S332 770 276 685Z" fill="#071A27"/>
    <path d="M381 603c25-34 62-57 104-66-39-35-62-87-62-142 0-73 39-131 89-160 50 29 89 87 89 160 0 55-23 107-62 142 42 9 79 32 104 66-22 104-69 173-131 173s-109-69-131-173Z" fill="#F7FAFC"/>
    <path d="M433 318c20-47 52-83 79-83s59 36 79 83c-30-18-53-25-79-25s-49 7-79 25Z" fill="#0B2433"/>
    <ellipse cx="465" cy="389" rx="18" ry="22" fill="#071A27"/>
    <ellipse cx="559" cy="389" rx="18" ry="22" fill="#071A27"/>
    <circle cx="471" cy="382" r="5" fill="#fff"/>
    <circle cx="565" cy="382" r="5" fill="#fff"/>
    <path d="m512 416-36 27 36 17 36-17-36-27Z" fill="#F5A524"/>
    <path d="M396 542c-51 15-94 50-120 98 35-3 77 7 110 31l10-129Zm232 0c51 15 94 50 120 98-35-3-77 7-110 31l-10-129Z" fill="#071A27"/>
    <ellipse cx="443" cy="786" rx="70" ry="27" transform="rotate(-8 443 786)" fill="#F5A524"/>
    <ellipse cx="581" cy="786" rx="70" ry="27" transform="rotate(8 581 786)" fill="#F5A524"/>
  </g>
  <g fill="none" stroke="url(#route)" stroke-width="30" stroke-linecap="round" stroke-linejoin="round">
    <path d="M512 655v-90"/>
    <path d="M512 594 414 496"/>
    <path d="M512 594 610 496"/>
  </g>
  <g fill="#5EEAD4" stroke="#E6FFFB" stroke-width="10">
    <circle cx="512" cy="655" r="28"/>
    <circle cx="414" cy="496" r="28"/>
    <circle cx="610" cy="496" r="28"/>
  </g>
</svg>
